<svg xmlns="http://www.w3.org/2000/svg" viewBox="0 0 64 64" width="64" height="64">
  <!-- Ronda 2 · C — El Carrusel: la bandeja del proyector; también se lee diafragma -->
  <circle cx="32" cy="32" r="26.5" fill="none" stroke="#171614" stroke-width="3.2"/>
  <g fill="#171614">
    <rect x="30.2" y="8.5" width="3.6" height="11" rx="1.8"/>
    <rect x="30.2" y="8.5" width="3.6" height="11" rx="1.8" transform="rotate(45 32 32)"/>
    <rect x="30.2" y="8.5" width="3.6" height="11" rx="1.8" transform="rotate(90 32 32)"/>
    <rect x="30.2" y="8.5" width="3.6" height="11" rx="1.8" transform="rotate(135 32 32)"/>
    <rect x="30.2" y="8.5" width="3.6" height="11" rx="1.8" transform="rotate(180 32 32)"/>
    <rect x="30.2" y="8.5" width="3.6" height="11" rx="1.8" transform="rotate(225 32 32)"/>
    <rect x="30.2" y="8.5" width="3.6" height="11" rx="1.8" transform="rotate(270 32 32)"/>
    <rect x="30.2" y="8.5" width="3.6" height="11" rx="1.8" transform="rotate(315 32 32)"/>
  </g>
  <circle cx="32" cy="32" r="3.6" fill="#C98A2B"/>
</svg>
