<svg xmlns="http://www.w3.org/2000/svg" width="1200" height="630" viewBox="0 0 1200 630">
<rect width="1200" height="630" fill="#F1F0EC"/>
<g transform="translate(326.925,350.25) scale(0.075,-0.075)"><path transform="translate(0,0)" d="M985 998Q985 1097 942.0 1165.5Q899 1234 801.0 1270.0Q703 1306 536 1306H286L293 1383H666Q848 1383 959.5 1333.5Q1071 1284 1122.5 1200.0Q1174 1116 1174 1011Q1174 903 1121.0 812.0Q1068 721 956.0 667.0Q844 613 666 613H293L286 690H656Q750 690 824.0 725.0Q898 760 941.5 828.5Q985 897 985 998ZM427 1383V81L595 34V0H77V34L245 81V1302L77 1349V1383Z" fill="#171614"/>
<path transform="translate(1221,0)" d="M536 41Q622 41 684.0 86.5Q746 132 780.0 224.0Q814 316 814 454Q814 598 780.5 696.0Q747 794 685.0 844.0Q623 894 535 894Q450 894 387.5 848.5Q325 803 291.0 711.0Q257 619 257 480Q257 337 290.5 239.0Q324 141 386.5 91.0Q449 41 536 41ZM532 -20Q401 -20 297.5 41.5Q194 103 134.0 212.0Q74 321 74 463Q74 606 136.0 717.5Q198 829 303.0 892.0Q408 955 539 955Q672 955 775.0 893.5Q878 832 937.5 723.5Q997 615 997 472Q997 329 935.0 217.5Q873 106 767.5 43.0Q662 -20 532 -20Z" fill="#171614"/>
<path transform="translate(2292,0)" d="M421 955Q483 955 533.0 942.0Q583 929 641 900L664 646H627L514 904L587 817Q542 860 502.5 878.5Q463 897 410 897Q330 897 284.0 861.0Q238 825 238 757Q238 712 260.0 679.0Q282 646 329.0 618.0Q376 590 453 558Q510 535 554.0 507.0Q598 479 627.5 444.5Q657 410 672.5 366.0Q688 322 688 267Q688 179 641.5 114.5Q595 50 518.0 15.0Q441 -20 345 -20Q278 -20 225.0 -8.5Q172 3 122 28L71 304H112L262 19L174 85Q207 66 234.0 55.5Q261 45 286.5 40.5Q312 36 338 36Q428 36 489.5 79.5Q551 123 551 210Q551 250 535.0 280.0Q519 310 488.5 334.5Q458 359 415.5 380.5Q373 402 319 425Q247 455 200.0 493.0Q153 531 129.5 582.0Q106 633 106 701Q106 782 148.5 838.5Q191 895 262.5 925.0Q334 955 421 955Z" fill="#171614"/>
<path transform="translate(3062,0)" d="M267 1191Q210 1191 175.0 1229.5Q140 1268 140 1320Q140 1371 175.0 1407.5Q210 1444 267 1444Q325 1444 359.0 1407.5Q393 1371 393 1320Q393 1268 359.0 1229.5Q325 1191 267 1191ZM366 960 363 782V72L512 32V0H51V32L198 72V768Q187 777 164.5 791.5Q142 806 113.0 822.0Q84 838 53 852V876L354 960Z" fill="#171614"/>
<path transform="translate(3605,0)" d="M328 251Q328 180 371.0 144.5Q414 109 490 109Q529 109 573.5 116.5Q618 124 674 141V103Q599 55 548.5 28.5Q498 2 460.5 -8.0Q423 -18 383 -18Q322 -18 272.0 7.0Q222 32 192.5 84.5Q163 137 163 219V803L46 880V896Q62 907 83.0 922.0Q104 937 128.5 954.0Q153 971 181.5 991.5Q210 1012 241.5 1034.0Q273 1056 307 1080H328V902ZM268 835V935H645L629 835Z" fill="#171614"/>
<path transform="translate(4287,0)" d="M267 1191Q210 1191 175.0 1229.5Q140 1268 140 1320Q140 1371 175.0 1407.5Q210 1444 267 1444Q325 1444 359.0 1407.5Q393 1371 393 1320Q393 1268 359.0 1229.5Q325 1191 267 1191ZM366 960 363 782V72L512 32V0H51V32L198 72V768Q187 777 164.5 791.5Q142 806 113.0 822.0Q84 838 53 852V876L354 960Z" fill="#171614"/>
<path transform="translate(4830,0)" d="M929 863 563 -23H525L116 854L-10 897V935H432V897L295 858L611 174H582L848 863L711 897V935H1042V897Z" fill="#171614"/>
<path transform="translate(5891,0)" d="M652 602 665 546Q536 511 455.0 477.0Q374 443 330.0 409.0Q286 375 269.5 337.0Q253 299 253 253Q253 176 298.0 136.5Q343 97 408 97Q460 97 501.0 120.5Q542 144 566.0 185.0Q590 226 590 280V687Q590 774 546.5 822.0Q503 870 409 870Q370 870 326.0 861.5Q282 853 249 836L301 879Q298 847 292.0 813.5Q286 780 277.5 753.0Q269 726 257 712Q243 696 217.5 687.5Q192 679 166 679Q133 679 113.5 693.5Q94 708 94 734Q94 771 129.0 808.5Q164 846 220.5 878.5Q277 911 344.5 930.5Q412 950 478 950Q577 950 638.0 920.5Q699 891 726.5 835.5Q754 780 754 703V180Q754 148 763.5 128.0Q773 108 791.5 98.0Q810 88 835 88Q863 88 893.0 98.0Q923 108 953 128V91Q896 25 845.0 3.0Q794 -19 745 -19Q692 -19 657.5 5.0Q623 29 607.0 74.0Q591 119 589 181L594 186Q579 127 542.5 80.0Q506 33 454.0 6.5Q402 -20 342 -20Q230 -20 156.5 41.0Q83 102 83 217Q83 278 105.5 326.0Q128 374 188.5 417.0Q249 460 361.0 504.5Q473 549 652 602Z" fill="#171614"/></g>
<g transform="translate(839.0999999999999,350.25) scale(0.075,-0.075)"><path transform="translate(0,0)" d="M226 241Q284 241 320.5 204.0Q357 167 357 112Q357 59 320.0 21.5Q283 -16 226 -16Q170 -16 133.0 21.5Q96 59 96 112Q96 167 133.0 204.0Q170 241 226 241Z" fill="#C98A2B"/></g>
<text x="600.0" y="449.25" text-anchor="middle"
      font-family="monospace" font-size="24" letter-spacing="6"
      fill="#6E6D67">ENTR&#201;GALO UNA VEZ. NO LO REENV&#205;ES NUNCA.</text>
</svg>