<svg xmlns="http://www.w3.org/2000/svg" width="64" height="64" viewBox="0 0 64 64">
<rect width="64" height="64" rx="12" fill="#F1F0EC"/>
<g transform="translate(14.4585,42.81) scale(0.023,-0.023)"><path transform="translate(0,0)" d="M985 998Q985 1097 942.0 1165.5Q899 1234 801.0 1270.0Q703 1306 536 1306H286L293 1383H666Q848 1383 959.5 1333.5Q1071 1284 1122.5 1200.0Q1174 1116 1174 1011Q1174 903 1121.0 812.0Q1068 721 956.0 667.0Q844 613 666 613H293L286 690H656Q750 690 824.0 725.0Q898 760 941.5 828.5Q985 897 985 998ZM427 1383V81L595 34V0H77V34L245 81V1302L77 1349V1383Z" fill="#171614"/></g><circle cx="48.0415" cy="42.81" r="3.5" fill="#C98A2B"/>
</svg>