<svg xmlns="http://www.w3.org/2000/svg" viewBox="-2 -2 201.3 24"><g transform="translate(0 19) scale(0.027142857142857142)"><path fill="#EDECE8" d="M72.0 0V-700H346.0Q418.0 -700 465.5 -670.5Q513.0 -641 536.5 -594.5Q560.0 -548 560.0 -497V-473Q560.0 -421 536.5 -373.0Q513.0 -325 465.5 -294.5Q418.0 -264 346.0 -264H204.0V0ZM204.0 -390H333.0Q377.0 -390 402.5 -414.0Q428.0 -438 428.0 -476V-488Q428.0 -526 402.5 -550.0Q377.0 -574 333.0 -574H204.0Z M1138.0 14Q1070.0 14 1011.0 -16.0Q952.0 -46 916.0 -103.0Q880.0 -160 880.0 -242V-254Q880.0 -335 916.0 -392.5Q952.0 -450 1011.0 -480.0Q1070.0 -510 1138.0 -510Q1206.0 -510 1265.0 -480.0Q1324.0 -450 1360.0 -392.5Q1396.0 -335 1396.0 -254V-242Q1396.0 -160 1360.0 -103.0Q1324.0 -46 1265.0 -16.0Q1206.0 14 1138.0 14ZM1138.0 -106Q1193.0 -106 1231.5 -141.5Q1270.0 -177 1270.0 -238V-258Q1270.0 -320 1231.5 -355.0Q1193.0 -390 1138.0 -390Q1083.0 -390 1044.5 -355.0Q1006.0 -320 1006.0 -258V-238Q1006.0 -177 1044.5 -141.5Q1083.0 -106 1138.0 -106Z M1982.0 14Q1905.0 14 1857.5 -11.0Q1810.0 -36 1785.5 -72.0Q1761.0 -108 1754.0 -142L1870.0 -180Q1878.0 -149 1904.0 -124.5Q1930.0 -100 1982.0 -100Q2029.0 -100 2046.5 -114.5Q2064.0 -129 2064.0 -146Q2064.0 -166 2043.0 -181.0Q2022.0 -196 1959.0 -201Q1876.0 -208 1826.0 -245.0Q1776.0 -282 1776.0 -352V-358Q1776.0 -407 1803.0 -441.0Q1830.0 -475 1873.0 -492.5Q1916.0 -510 1964.0 -510Q2027.0 -510 2068.0 -490.5Q2109.0 -471 2132.5 -442.0Q2156.0 -413 2166.0 -384L2052.0 -338Q2043.0 -365 2021.0 -380.5Q1999.0 -396 1964.0 -396Q1933.0 -396 1916.5 -384.5Q1900.0 -373 1900.0 -356Q1900.0 -332 1925.0 -322.0Q1950.0 -312 2016.0 -304Q2092.0 -296 2140.0 -258.5Q2188.0 -221 2188.0 -154V-148Q2188.0 -75 2134.0 -30.5Q2080.0 14 1982.0 14Z M2813.0 -548Q2774.0 -548 2746.0 -575.5Q2718.0 -603 2718.0 -643Q2718.0 -683 2746.0 -710.5Q2774.0 -738 2813.0 -738Q2852.0 -738 2880.0 -710.5Q2908.0 -683 2908.0 -643Q2908.0 -603 2880.0 -575.5Q2852.0 -548 2813.0 -548ZM2583.0 0V-120H2751.0V-376H2595.0V-496H2877.0V-120H3021.0V0Z M3616.0 0Q3582.0 0 3560.5 -22.0Q3539.0 -44 3539.0 -78V-376H3392.0V-496H3539.0V-700H3665.0V-496H3844.0V-376H3665.0V-150Q3665.0 -120 3692.0 -120H3826.0V0Z M4477.0 -548Q4438.0 -548 4410.0 -575.5Q4382.0 -603 4382.0 -643Q4382.0 -683 4410.0 -710.5Q4438.0 -738 4477.0 -738Q4516.0 -738 4544.0 -710.5Q4572.0 -683 4572.0 -643Q4572.0 -603 4544.0 -575.5Q4516.0 -548 4477.0 -548ZM4247.0 0V-120H4415.0V-376H4259.0V-496H4541.0V-120H4685.0V0Z M5177.0 0 5035.0 -496H5171.0L5288.0 -60H5306.0L5423.0 -496H5559.0L5417.0 0Z M6083.0 14Q6024.0 14 5974.0 -16.0Q5924.0 -46 5894.0 -103.0Q5864.0 -160 5864.0 -240V-256Q5864.0 -335 5893.0 -392.0Q5922.0 -449 5970.5 -479.5Q6019.0 -510 6077.0 -510Q6130.0 -510 6162.5 -492.0Q6195.0 -474 6214.0 -436H6232.0V-496H6358.0V-150Q6358.0 -120 6385.0 -120H6404.0V0H6318.0Q6284.0 0 6262.5 -20.5Q6241.0 -41 6241.0 -72H6223.0Q6204.0 -26 6167.5 -6.0Q6131.0 14 6083.0 14ZM6111.0 -106Q6166.0 -106 6199.0 -142.5Q6232.0 -179 6232.0 -242V-254Q6232.0 -317 6199.0 -353.5Q6166.0 -390 6111.0 -390Q6056.0 -390 6023.0 -353.5Q5990.0 -317 5990.0 -254V-242Q5990.0 -179 6023.0 -142.5Q6056.0 -106 6111.0 -106Z"/><path fill="#C98A2B" d="M6962.0 14Q6923.0 14 6895.0 -13.5Q6867.0 -41 6867.0 -81Q6867.0 -121 6895.0 -148.5Q6923.0 -176 6962.0 -176Q7001.0 -176 7029.0 -148.5Q7057.0 -121 7057.0 -81Q7057.0 -41 7029.0 -13.5Q7001.0 14 6962.0 14Z"/></g></svg>