<svg xmlns="http://www.w3.org/2000/svg" viewBox="-2 -2 201.3 24"><g transform="translate(0 19) scale(0.027142857142857142)"><path fill="#171614" d="M72.0 0V-700H346.0Q418.0 -700 465.5 -670.5Q513.0 -641 536.5 -594.5Q560.0 -548 560.0 -497V-473Q560.0 -421 536.5 -373.0Q513.0 -325 465.5 -294.5Q418.0 -264 346.0 -264H204.0V0ZM204.0 -390H333.0Q377.0 -390 402.5 -414.0Q428.0 -438 428.0 -476V-488Q428.0 -526 402.5 -550.0Q377.0 -574 333.0 -574H204.0Z M1138.0 14Q1018.0 14 949.0 -59.5Q880.0 -133 880.0 -272V-428Q880.0 -563 949.0 -638.5Q1018.0 -714 1138.0 -714Q1258.0 -714 1327.0 -638.5Q1396.0 -563 1396.0 -428V-272Q1396.0 -133 1327.0 -59.5Q1258.0 14 1138.0 14ZM1138.0 -106Q1210.0 -106 1237.0 -150.0Q1264.0 -194 1264.0 -264V-436Q1264.0 -480 1251.0 -516.0Q1238.0 -552 1210.5 -573.0Q1183.0 -594 1138.0 -594Q1093.0 -594 1065.0 -573.0Q1037.0 -552 1024.5 -516.0Q1012.0 -480 1012.0 -436V-264Q1012.0 -194 1039.0 -150.0Q1066.0 -106 1138.0 -106Z M1980.0 14Q1888.0 14 1825.5 -19.5Q1763.0 -53 1731.5 -111.0Q1700.0 -169 1700.0 -242V-272H1832.0V-248Q1832.0 -185 1869.0 -147.5Q1906.0 -110 1982.0 -110Q2042.0 -110 2071.0 -136.0Q2100.0 -162 2100.0 -198Q2100.0 -221 2089.0 -240.5Q2078.0 -260 2049.0 -274.5Q2020.0 -289 1966.0 -298Q1896.0 -310 1841.5 -333.0Q1787.0 -356 1755.5 -397.5Q1724.0 -439 1724.0 -508V-514Q1724.0 -571 1754.0 -616.5Q1784.0 -662 1838.5 -688.0Q1893.0 -714 1966.0 -714Q2049.0 -714 2106.0 -684.0Q2163.0 -654 2192.5 -604.5Q2222.0 -555 2222.0 -498V-462H2090.0V-486Q2090.0 -528 2057.5 -559.0Q2025.0 -590 1966.0 -590Q1917.0 -590 1887.5 -569.5Q1858.0 -549 1858.0 -514Q1858.0 -478 1889.5 -456.0Q1921.0 -434 2008.0 -418Q2118.0 -399 2176.0 -351.5Q2234.0 -304 2234.0 -212V-200Q2234.0 -103 2166.0 -44.5Q2098.0 14 1980.0 14Z M2568.0 0V-126H2736.0V-574H2568.0V-700H3036.0V-574H2868.0V-126H3036.0V0Z M3568.0 0V-574H3382.0V-700H3886.0V-574H3700.0V0Z M4232.0 0V-126H4400.0V-574H4232.0V-700H4700.0V-574H4532.0V-126H4700.0V0Z M5174.0 0 5016.0 -700H5152.0L5289.0 -66H5307.0L5444.0 -700H5580.0L5422.0 0Z M5839.0 0 6006.0 -700H6254.0L6421.0 0H6283.0L6249.0 -150H6011.0L5977.0 0ZM6039.0 -276H6220.0L6139.0 -634H6121.0Z"/><path fill="#C98A2B" d="M6962.0 14Q6923.0 14 6895.0 -13.5Q6867.0 -41 6867.0 -81Q6867.0 -121 6895.0 -148.5Q6923.0 -176 6962.0 -176Q7001.0 -176 7029.0 -148.5Q7057.0 -121 7057.0 -81Q7057.0 -41 7029.0 -13.5Q7001.0 14 6962.0 14Z"/></g></svg>